<?xml version="1.0" encoding="utf-8"?><svg xmlns="http://www.w3.org/2000/svg" xmlns:xlink="http://www.w3.org/1999/xlink" width="135" height="135" preserveAspectRatio="xMidYMid" viewBox="0 0 135 135" style="display:block;background-repeat-y:initial;background-repeat-x:initial;background-color:rgb(22, 27, 39);animation-play-state:paused" ><g transform="scale(0.53)" data-fill="c1" style="transform:matrix(0.53, 0, 0, 0.53, 0, 0);fill:rgb(47, 31, 42);animation-play-state:paused" ><g data-idx="0" data-dup="" dx="-128" dy="-128" style="transform-origin:64.0005px 64px;animation-timing-function:linear;animation-play-state:paused;animation-name:static-f7e2173d-65aa-41e9-acc0-636685711c3c;animation-iteration-count:infinite;animation-fill-mode:forwards;animation-duration:1s" ><g transform="translate(-128,-128)" style="transform:matrix(1, 0, 0, 1, -128, -128);animation-play-state:paused" ><path fill="none" stroke="#000000" stroke-width="8" stroke-linecap="round" stroke-linejoin="round" stroke-miterlimit="10" d="
	M160,187c6.398,0,6.398,10,12.795,10c6.4,0,6.4-10,12.8-10c6.398,0,6.398,10,12.796,10c6.402,0,6.402-10,12.805-10
	c6.402,0,6.402,10,12.805,10" data-stroke="c1" style="stroke:rgb(47, 31, 42);animation-play-state:paused" ></path></g></g>
<g data-idx="0" data-dup="" dx="128" dy="-128" style="transform-origin:320.001px 64px;animation-timing-function:linear;animation-play-state:paused;animation-name:static-f7e2173d-65aa-41e9-acc0-636685711c3c;animation-iteration-count:infinite;animation-fill-mode:forwards;animation-duration:1s" ><g transform="translate(128,-128)" style="transform:matrix(1, 0, 0, 1, 128, -128);animation-play-state:paused" ><path fill="none" stroke="#000000" stroke-width="8" stroke-linecap="round" stroke-linejoin="round" stroke-miterlimit="10" d="
	M160,187c6.398,0,6.398,10,12.795,10c6.4,0,6.4-10,12.8-10c6.398,0,6.398,10,12.796,10c6.402,0,6.402-10,12.805-10
	c6.402,0,6.402,10,12.805,10" data-stroke="c1" style="stroke:rgb(47, 31, 42);animation-play-state:paused" ></path></g></g>
<g data-idx="1" data-dup="" dx="-128" dy="-128" style="transform-origin:-64px -64px;animation-timing-function:linear;animation-play-state:paused;animation-name:static-f7e2173d-65aa-41e9-acc0-636685711c3c;animation-iteration-count:infinite;animation-fill-mode:forwards;animation-duration:1s" ><g transform="translate(-128,-128)" style="transform:matrix(1, 0, 0, 1, -128, -128);animation-play-state:paused" ><path fill="none" stroke="#777777" stroke-width="8" stroke-linecap="round" stroke-linejoin="round" stroke-miterlimit="10" d="
	M32,59c6.398,0,6.398,10,12.795,10c6.4,0,6.4-10,12.8-10c6.398,0,6.398,10,12.796,10c6.402,0,6.402-10,12.805-10
	C89.598,59,89.598,69,96,69" data-stroke="c2" style="stroke:rgb(33, 39, 55);animation-play-state:paused" ></path></g></g>
<g data-idx="1" data-dup="" dx="128" dy="-128" style="transform-origin:192px -64px;animation-timing-function:linear;animation-play-state:paused;animation-name:static-f7e2173d-65aa-41e9-acc0-636685711c3c;animation-iteration-count:infinite;animation-fill-mode:forwards;animation-duration:1s" ><g transform="translate(128,-128)" style="transform:matrix(1, 0, 0, 1, 128, -128);animation-play-state:paused" ><path fill="none" stroke="#777777" stroke-width="8" stroke-linecap="round" stroke-linejoin="round" stroke-miterlimit="10" d="
	M32,59c6.398,0,6.398,10,12.795,10c6.4,0,6.4-10,12.8-10c6.398,0,6.398,10,12.796,10c6.402,0,6.402-10,12.805-10
	C89.598,59,89.598,69,96,69" data-stroke="c2" style="stroke:rgb(33, 39, 55);animation-play-state:paused" ></path></g></g>
<g data-idx="0" data-dup="" dx="-128" dy="128" style="transform-origin:64.0005px 320px;animation-timing-function:linear;animation-play-state:paused;animation-name:static-f7e2173d-65aa-41e9-acc0-636685711c3c;animation-iteration-count:infinite;animation-fill-mode:forwards;animation-duration:1s" ><g transform="translate(-128,128)" style="transform:matrix(1, 0, 0, 1, -128, 128);animation-play-state:paused" ><path fill="none" stroke="#000000" stroke-width="8" stroke-linecap="round" stroke-linejoin="round" stroke-miterlimit="10" d="
	M160,187c6.398,0,6.398,10,12.795,10c6.4,0,6.4-10,12.8-10c6.398,0,6.398,10,12.796,10c6.402,0,6.402-10,12.805-10
	c6.402,0,6.402,10,12.805,10" data-stroke="c1" style="stroke:rgb(47, 31, 42);animation-play-state:paused" ></path></g></g>
<g data-idx="0" data-dup="" dx="128" dy="128" style="transform-origin:320.001px 320px;animation-timing-function:linear;animation-play-state:paused;animation-name:static-f7e2173d-65aa-41e9-acc0-636685711c3c;animation-iteration-count:infinite;animation-fill-mode:forwards;animation-duration:1s" ><g transform="translate(128,128)" style="transform:matrix(1, 0, 0, 1, 128, 128);animation-play-state:paused" ><path fill="none" stroke="#000000" stroke-width="8" stroke-linecap="round" stroke-linejoin="round" stroke-miterlimit="10" d="
	M160,187c6.398,0,6.398,10,12.795,10c6.4,0,6.4-10,12.8-10c6.398,0,6.398,10,12.796,10c6.402,0,6.402-10,12.805-10
	c6.402,0,6.402,10,12.805,10" data-stroke="c1" style="stroke:rgb(47, 31, 42);animation-play-state:paused" ></path></g></g>
<g data-idx="1" data-dup="" dx="-128" dy="128" style="transform-origin:-64px 192px;animation-timing-function:linear;animation-play-state:paused;animation-name:static-f7e2173d-65aa-41e9-acc0-636685711c3c;animation-iteration-count:infinite;animation-fill-mode:forwards;animation-duration:1s" ><g transform="translate(-128,128)" style="transform:matrix(1, 0, 0, 1, -128, 128);animation-play-state:paused" ><path fill="none" stroke="#777777" stroke-width="8" stroke-linecap="round" stroke-linejoin="round" stroke-miterlimit="10" d="
	M32,59c6.398,0,6.398,10,12.795,10c6.4,0,6.4-10,12.8-10c6.398,0,6.398,10,12.796,10c6.402,0,6.402-10,12.805-10
	C89.598,59,89.598,69,96,69" data-stroke="c2" style="stroke:rgb(33, 39, 55);animation-play-state:paused" ></path></g></g>
<g data-idx="1" data-dup="" dx="128" dy="128" style="transform-origin:192px 192px;animation-timing-function:linear;animation-play-state:paused;animation-name:static-f7e2173d-65aa-41e9-acc0-636685711c3c;animation-iteration-count:infinite;animation-fill-mode:forwards;animation-duration:1s" ><g transform="translate(128,128)" style="transform:matrix(1, 0, 0, 1, 128, 128);animation-play-state:paused" ><path fill="none" stroke="#777777" stroke-width="8" stroke-linecap="round" stroke-linejoin="round" stroke-miterlimit="10" d="
	M32,59c6.398,0,6.398,10,12.795,10c6.4,0,6.4-10,12.8-10c6.398,0,6.398,10,12.796,10c6.402,0,6.402-10,12.805-10
	C89.598,59,89.598,69,96,69" data-stroke="c2" style="stroke:rgb(33, 39, 55);animation-play-state:paused" ></path></g></g></g></svg>